<?xml version="1.0" encoding="UTF-8"?>
<svg id="Calque_2" data-name="Calque 2" xmlns="http://www.w3.org/2000/svg" viewBox="0 0 32 31.98">
  <defs>
    <style>
      .cls-1 {
        fill: #0d1117;
      }

      .cls-2 {
        fill: #f03;
      }
    </style>
  </defs>
  <g id="Calque_1-2" data-name="Calque 1">
    <g>
      <g>
        <path class="cls-1" d="M25.14,16s0,0,0,0c0-5-4.04-9.07-9.02-9.13,0,0-.01,0-.02,0h0s0,0-.01,0c0,0-.01,0-.02,0-.02,0-.04,0-.06,0h-.02s0,0,0,0c-.02,0-.05,0-.07,0h-.02c-4.07.04-7.51,2.76-8.64,6.47,1.34.41,2.63.98,3.83,1.7.13.08.26.16.39.24.35-2.18,2.24-3.85,4.52-3.85h.02s0,0,0,0c2.52,0,4.57,2.05,4.57,4.57,0,0,0,0,0,0,0,2.28-1.68,4.17-3.87,4.51.08.13.16.26.24.39.73,1.21,1.3,2.5,1.7,3.84,3.75-1.14,6.49-4.62,6.49-8.74Z"/>
        <path class="cls-1" d="M32,15.99c0-3.01-.83-5.82-2.28-8.22-1.35-2.25-3.24-4.13-5.49-5.49C21.83.83,19.01,0,16.01,0c0,0,0,0,0,0h-.02c-3.01,0-5.82.83-8.22,2.28-2.25,1.35-4.13,3.24-5.49,5.49-1,1.66-1.71,3.53-2.05,5.51.57-.43,1.28-.69,2.05-.69.92,0,1.83.07,2.73.22,1.38-4.76,5.78-8.25,10.98-8.25h.02s0,0,0,0c6.3,0,11.42,5.13,11.42,11.43,0,0,0,0,0,0,0,5.2-3.5,9.6-8.26,10.98.15.9.22,1.81.22,2.73,0,.77-.26,1.48-.69,2.05,1.99-.34,3.86-1.05,5.53-2.05,2.25-1.35,4.13-3.24,5.49-5.49,1.45-2.4,2.28-5.22,2.28-8.22,0,0,0,0,0,0h0Z"/>
        <path class="cls-1" d="M17.08,18c.07-.04.13-.07.19-.11.06-.04.12-.09.18-.13.03-.02.06-.05.09-.07.03-.03.05-.05.08-.08.03-.03.05-.05.08-.08.03-.03.05-.06.07-.09.05-.06.09-.12.13-.18s.08-.13.11-.19c.04-.06.07-.13.1-.2s.05-.14.08-.21c.02-.07.04-.14.05-.22s.03-.15.03-.22c0-.04,0-.08,0-.11,0-.04,0-.08,0-.11s0-.08,0-.11c0-.04,0-.08,0-.11,0-.07-.02-.15-.03-.22s-.03-.15-.05-.22-.05-.14-.08-.21c-.03-.07-.06-.14-.1-.2-.04-.07-.07-.13-.11-.19-.04-.06-.09-.12-.13-.18-.02-.03-.05-.06-.07-.09-.03-.03-.05-.05-.08-.08-.03-.03-.05-.05-.08-.08-.03-.03-.06-.05-.09-.07-.06-.05-.12-.09-.18-.13-.06-.04-.13-.08-.19-.11-.06-.04-.13-.07-.2-.1-.07-.03-.14-.05-.21-.08-.07-.02-.14-.04-.22-.05s-.15-.03-.22-.03c-.04,0-.08,0-.11,0-.04,0-.08,0-.11,0s-.08,0-.11,0c-.04,0-.08,0-.11,0-.07,0-.15.02-.22.03s-.15.03-.22.05c-.07.02-.14.05-.21.08-.07.03-.14.06-.2.1-.07.04-.13.07-.19.11-.06.04-.12.09-.18.13-.03.02-.06.05-.09.07-.03.03-.05.05-.08.08-.03.03-.05.05-.08.08-.03.03-.05.06-.07.09-.05.06-.09.12-.13.18-.04.06-.08.13-.11.19-.04.06-.07.13-.1.2-.03.07-.05.14-.08.21-.02.07-.04.14-.05.22-.01.07-.03.15-.03.22,0,.04,0,.08,0,.11,0,.04,0,.08,0,.11s0,.08,0,.11,0,.08,0,.11c0,.07.02.15.03.22.01.07.03.15.05.22.02.07.05.14.08.21.03.07.06.14.1.2.04.07.07.13.11.19.04.06.09.12.13.18.02.03.05.06.07.09s.05.05.08.08c.03.03.05.05.08.08.03.03.06.05.09.07.06.05.12.09.18.13.06.04.13.08.19.11.06.04.13.07.2.1.07.03.14.05.21.08.07.02.14.04.22.05.07.01.15.03.22.03.04,0,.08,0,.11,0,.08,0,.15,0,.23,0,.04,0,.08,0,.11,0,.07,0,.15-.02.22-.03s.15-.03.22-.05c.07-.02.14-.05.21-.08.07-.03.14-.06.2-.1Z"/>
      </g>
      <g>
        <path class="cls-2" d="M18.27,29.7c0,1.26-1.02,2.28-2.28,2.28s-2.28-1.02-2.28-2.28c0-6.3-5.13-11.43-11.43-11.43-1.26,0-2.28-1.02-2.28-2.28s1.02-2.28,2.28-2.28c3.01,0,5.82.83,8.22,2.28,2.25,1.35,4.13,3.24,5.49,5.49,1.45,2.4,2.28,5.22,2.28,8.22h0Z"/>
        <path class="cls-2" d="M2.28,20.57c5.04,0,9.14,4.1,9.14,9.14,0,1.26-1.02,2.28-2.28,2.28s-2.28-1.02-2.28-2.28c0-2.52-2.05-4.57-4.57-4.57-1.26,0-2.28-1.02-2.28-2.28s1.02-2.28,2.28-2.28h0Z"/>
        <path class="cls-2" d="M2.39,27.42s.07,0,.11,0c.07,0,.15.02.22.03s.15.03.22.05c.07.02.14.05.21.08.07.03.14.06.2.1.07.04.13.07.19.11.06.04.12.09.18.13.03.02.06.05.09.07.03.03.06.05.08.08.03.03.05.05.08.08.03.03.05.06.07.09.05.06.09.12.13.18.04.06.08.13.11.19.04.06.07.13.1.2.03.07.05.14.08.21s.04.14.05.22.03.15.03.22c0,.04,0,.07,0,.11s0,.08,0,.11,0,.08,0,.11c0,.04,0,.07,0,.11,0,.07-.02.15-.03.22-.01.07-.03.15-.05.22-.02.07-.05.14-.08.21-.03.07-.06.14-.1.2-.04.07-.07.13-.11.19-.04.06-.09.12-.13.18-.02.03-.05.06-.07.09-.03.03-.05.06-.08.08-.03.03-.05.05-.08.08-.03.03-.06.05-.09.07-.06.05-.12.09-.18.13-.06.04-.13.08-.19.11-.06.04-.13.07-.2.1-.07.03-.14.05-.21.08s-.14.04-.22.05-.15.03-.22.03c-.04,0-.07,0-.11,0-.08,0-.15,0-.23,0-.04,0-.07,0-.11,0-.07,0-.15-.02-.22-.03-.07-.01-.15-.03-.22-.05-.07-.02-.14-.05-.21-.08-.07-.03-.14-.06-.2-.1-.07-.04-.13-.07-.19-.11-.06-.04-.12-.09-.18-.13-.03-.02-.06-.05-.09-.07-.03-.03-.06-.05-.08-.08s-.05-.05-.08-.08-.05-.06-.07-.09c-.05-.06-.09-.12-.13-.18-.04-.06-.08-.13-.11-.19-.04-.06-.07-.13-.1-.2-.03-.07-.05-.14-.08-.21s-.04-.14-.05-.22-.03-.15-.03-.22c0-.04,0-.07,0-.11s0-.08,0-.11,0-.08,0-.11c0-.04,0-.07,0-.11,0-.07.02-.15.03-.22.01-.07.03-.15.05-.22.02-.07.05-.14.08-.21.03-.07.06-.14.1-.2.04-.07.07-.13.11-.19.04-.06.09-.12.13-.18.02-.03.05-.06.07-.09.03-.03.05-.06.08-.08s.05-.05.08-.08c.03-.03.06-.05.09-.07.06-.05.12-.09.18-.13.06-.04.13-.08.19-.11.06-.04.13-.07.2-.1.07-.03.14-.05.21-.08s.14-.04.22-.05.15-.03.22-.03c.04,0,.07,0,.11,0s.08,0,.11,0,.08,0,.11,0Z"/>
      </g>
    </g>
  </g>
</svg>