<?xml version="1.0" encoding="UTF-8"?>
<svg id="Calque_2" data-name="Calque 2" xmlns="http://www.w3.org/2000/svg" viewBox="0 0 1269.59 272.79">
  <defs>
    <style>
      .cls-1 {
        fill: #fff;
      }

      .cls-2 {
        fill: #f03;
      }
    </style>
  </defs>
  <g id="Calque_1-2" data-name="Calque 1">
    <g>
      <g>
        <g>
          <path class="cls-1" d="M256.71,128.29v.03c0,24.11-6.68,46.68-18.29,65.97-10.86,18.02-26,33.17-44.02,44.02-13.4,8.07-28.39,13.76-44.37,16.47,3.49-4.58,5.56-10.3,5.56-16.48,0-7.36-.59-14.67-1.76-21.87,38.24-11.05,66.29-46.36,66.29-88.11v-.03c.02-10.1,8.2-18.28,18.3-18.28s18.27,8.18,18.29,18.28Z"/>
          <path class="cls-1" d="M201.72,128.3h0c0,33.04-21.96,61.03-52.05,70.16-3.25-10.75-7.82-21.09-13.66-30.78-.63-1.05-1.28-2.08-1.94-3.11,17.57-2.73,31.05-17.95,31.05-36.26h0c.01-10.12,8.19-18.31,18.3-18.31s18.29,8.19,18.3,18.3Z"/>
        </g>
        <g>
          <path class="cls-1" d="M146.58,18.3c0,10.07-8.12,18.23-18.16,18.3h-.13c-41.71,0-77,27.99-88.08,66.17-7.21-1.18-14.54-1.77-21.91-1.77-6.17,0-11.88,2.06-16.46,5.54,2.73-15.93,8.41-30.87,16.45-44.22,10.86-18.02,26-33.18,44.02-44.02C81.6,6.69,104.18,0,128.29,0h.13c10.04.07,18.16,8.23,18.16,18.3Z"/>
          <path class="cls-1" d="M146.59,73.3c0,10.07-8.12,18.24-18.17,18.31h-.13c-18.28,0-33.47,13.42-36.25,30.92-1.03-.66-2.08-1.31-3.13-1.94-9.67-5.83-20-10.41-30.74-13.66,9.09-29.78,36.67-51.56,69.31-51.91h.14c.22-.01.44-.01.66-.01h.01s.13,0,.13,0c.18,0,.34,0,.51.02.06-.01.12-.01.18,0,.04-.01.07-.01.11,0h.01c9.67.49,17.36,8.49,17.36,18.28Z"/>
        </g>
        <g>
          <path class="cls-1" d="M256.71,128.29c0,10.11-8.18,18.3-18.29,18.3-10.11,0-18.3-8.19-18.3-18.3,0-50.56-41.14-91.7-91.7-91.7-10.1,0-18.29-8.18-18.29-18.29,0-10.11,8.19-18.3,18.29-18.3,24.11,0,46.69,6.69,65.98,18.3,18.02,10.84,33.16,25.99,44.02,44.01,11.61,19.29,18.29,41.87,18.29,65.98h0Z"/>
          <path class="cls-1" d="M128.43,55.01c40.41,0,73.29,32.88,73.29,73.29,0,10.11-8.19,18.3-18.3,18.3-10.11,0-18.3-8.19-18.3-18.3,0-20.23-16.46-36.7-36.7-36.7-10.11,0-18.3-8.19-18.3-18.3,0-10.11,8.19-18.3,18.3-18.3h0Z"/>
        </g>
        <path class="cls-1" d="M129.32,110.02c.29,0,.59.04.9.06.58.05,1.19.15,1.77.26s1.17.26,1.74.44c.58.17,1.14.37,1.69.6.55.23,1.1.48,1.62.77.53.28,1.05.59,1.54.92.49.33.99.69,1.44,1.07.24.19.47.38.68.58.23.2.45.41.66.62.21.22.42.44.62.66.2.23.39.46.58.68.37.46.74.95,1.07,1.44.33.5.64,1.01.92,1.54.28.52.54,1.07.77,1.62.23.56.43,1.12.6,1.69s.32,1.15.44,1.74.2,1.18.26,1.77c.03.29.05.59.06.9s.02.6.02.9c0,.3,0,.6-.02.9,0,.29-.04.59-.06.9-.05.58-.15,1.19-.26,1.77-.12.58-.26,1.17-.44,1.74-.17.58-.37,1.14-.6,1.69-.23.55-.48,1.1-.77,1.62-.28.53-.59,1.05-.92,1.54-.33.49-.69.99-1.07,1.44-.18.24-.38.47-.58.68-.2.23-.41.45-.62.66-.22.21-.44.42-.66.62-.23.2-.46.39-.68.58-.46.37-.94.74-1.44,1.07-.5.33-1.01.64-1.54.92-.52.28-1.07.54-1.62.77-.56.23-1.12.43-1.69.6s-1.15.32-1.74.44-1.18.2-1.77.26c-.29.03-.59.05-.9.06-.6.03-1.21.03-1.81,0-.29,0-.59-.04-.9-.06-.58-.05-1.19-.15-1.77-.26-.58-.12-1.17-.26-1.74-.44-.58-.17-1.14-.37-1.69-.6-.55-.23-1.1-.48-1.62-.77-.53-.28-1.05-.59-1.54-.92-.49-.34-.99-.69-1.44-1.07-.24-.18-.47-.38-.68-.58-.23-.2-.45-.4-.66-.62s-.42-.44-.62-.66-.39-.46-.58-.68c-.38-.46-.74-.94-1.07-1.44-.33-.5-.64-1.01-.92-1.54-.28-.52-.54-1.07-.77-1.62-.23-.56-.43-1.12-.6-1.69s-.32-1.15-.44-1.74-.2-1.18-.26-1.77c-.03-.29-.05-.59-.06-.9s-.02-.6-.02-.9c0-.3,0-.6.02-.9,0-.29.04-.59.06-.9.05-.58.15-1.19.26-1.77.12-.58.26-1.17.44-1.74.17-.58.37-1.14.6-1.69.23-.55.48-1.1.77-1.62.28-.53.59-1.05.92-1.54.34-.49.69-.99,1.07-1.44.18-.24.38-.47.58-.68.2-.23.4-.45.62-.66s.44-.42.66-.62c.23-.2.46-.39.68-.58.46-.38.95-.74,1.44-1.07.5-.33,1.01-.64,1.54-.92.52-.28,1.07-.54,1.62-.77.56-.23,1.12-.43,1.69-.6s1.15-.32,1.74-.44,1.18-.2,1.77-.26c.29-.03.59-.05.9-.06s.6-.02.9-.02.6,0,.9.02Z"/>
        <g>
          <path class="cls-2" d="M146.6,238.28c0,10.11-8.18,18.3-18.29,18.3-10.11,0-18.3-8.19-18.3-18.3,0-50.56-41.14-91.7-91.7-91.7-10.1,0-18.29-8.18-18.29-18.29,0-10.11,8.19-18.3,18.29-18.3,24.11,0,46.69,6.69,65.98,18.3,18.02,10.84,33.16,25.99,44.02,44.01,11.61,19.29,18.29,41.87,18.29,65.98h0Z"/>
          <path class="cls-2" d="M18.31,164.99c40.41,0,73.29,32.88,73.29,73.29,0,10.11-8.19,18.3-18.3,18.3-10.11,0-18.3-8.19-18.3-18.3,0-20.23-16.46-36.7-36.7-36.7-10.11,0-18.3-8.19-18.3-18.3,0-10.11,8.19-18.3,18.3-18.3h0Z"/>
          <path class="cls-2" d="M19.21,220c.29,0,.59.04.9.06.58.05,1.19.15,1.77.26s1.17.26,1.74.44c.58.17,1.14.37,1.69.6.55.23,1.1.48,1.62.77.53.28,1.05.59,1.54.92.49.33.99.69,1.44,1.07.24.19.47.38.68.58.23.2.45.41.66.62.21.22.42.44.62.66.2.23.39.46.58.68.37.46.74.95,1.07,1.44.33.5.64,1.01.92,1.54.28.52.54,1.07.77,1.62.23.56.43,1.12.6,1.69s.32,1.15.44,1.74.2,1.18.26,1.77c.03.29.05.59.06.9s.02.6.02.9,0,.6-.02.9c0,.29-.04.59-.06.9-.05.58-.15,1.19-.26,1.77-.12.58-.26,1.17-.44,1.74-.17.58-.37,1.14-.6,1.69-.23.55-.48,1.1-.77,1.62-.28.53-.59,1.05-.92,1.54-.33.49-.69.99-1.07,1.44-.18.24-.38.47-.58.68-.2.23-.41.45-.62.66-.22.21-.44.42-.66.62-.23.2-.46.39-.68.58-.46.37-.94.74-1.44,1.07-.5.33-1.01.64-1.54.92-.52.28-1.07.54-1.62.77-.56.23-1.12.43-1.69.6s-1.15.32-1.74.44-1.18.2-1.77.26c-.29.03-.59.05-.9.06-.6.03-1.21.03-1.81,0-.29,0-.59-.04-.9-.06-.58-.05-1.19-.15-1.77-.26-.58-.12-1.17-.26-1.74-.44-.58-.17-1.14-.37-1.69-.6-.55-.23-1.1-.48-1.62-.77-.53-.28-1.05-.59-1.54-.92-.49-.34-.99-.69-1.44-1.07-.24-.18-.47-.38-.68-.58-.23-.2-.45-.4-.66-.62s-.42-.44-.62-.66-.39-.46-.58-.68c-.38-.46-.74-.94-1.07-1.44-.33-.5-.64-1.01-.92-1.54-.28-.52-.54-1.07-.77-1.62-.23-.56-.43-1.12-.6-1.69s-.32-1.15-.44-1.74-.2-1.18-.26-1.77c-.03-.29-.05-.59-.06-.9s-.02-.6-.02-.9,0-.6.02-.9c0-.29.04-.59.06-.9.05-.58.15-1.19.26-1.77.12-.58.26-1.17.44-1.74.17-.58.37-1.14.6-1.69.23-.55.48-1.1.77-1.62.28-.53.59-1.05.92-1.54.34-.49.69-.99,1.07-1.44.18-.24.38-.47.58-.68.2-.23.4-.45.62-.66s.44-.42.66-.62c.23-.2.46-.39.68-.58.46-.38.95-.74,1.44-1.07.5-.33,1.01-.64,1.54-.92.52-.28,1.07-.54,1.62-.77.56-.23,1.12-.43,1.69-.6s1.15-.32,1.74-.44,1.18-.2,1.77-.26c.29-.03.59-.05.9-.06s.6-.02.9-.02.6,0,.9.02Z"/>
        </g>
      </g>
      <g>
        <path class="cls-1" d="M375.53,123.57l-39.04-113.9c-.68-1.7.34-2.89,2.21-2.89h25.29c1.36,0,2.38.51,2.89,2.04l24.78,79.1,24.61-79.1c.51-1.53,1.7-2.04,3.06-2.04h25.29c1.87,0,2.89,1.19,2.21,2.89l-39.04,113.9c-.51,1.36-2.04,2.04-3.4,2.04h-25.63c-1.36,0-2.72-.68-3.23-2.04Z"/>
        <path class="cls-1" d="M457.69,15.28c0-8.49,6.45-15.28,15.45-15.28s15.45,6.79,15.45,15.28-6.62,15.45-15.45,15.45-15.45-6.79-15.45-15.45ZM458.71,45.15c0-1.53,1.19-2.72,2.72-2.72h23.42c1.53,0,2.72,1.19,2.72,2.72v77.74c0,1.53-1.19,2.72-2.72,2.72h-23.42c-1.53,0-2.72-1.19-2.72-2.72V45.15Z"/>
        <path class="cls-1" d="M501.14,84.02c0-24.44,15.79-43.62,38.7-43.62,10.35,0,17.65,3.06,23.08,9V6.96c0-1.53,1.19-2.72,2.72-2.72h23.25c1.53,0,2.72,1.19,2.72,2.72v115.93c0,1.53-1.36,2.72-2.89,2.72h-20.88c-1.53,0-2.72-1.19-2.72-2.72l-.34-6.96c-5.6,7.3-13.58,11.71-24.95,11.71-22.92,0-38.7-19.01-38.7-43.62ZM546.29,101.85c10.01,0,16.97-7.13,16.97-17.99s-6.96-17.65-16.97-17.65-17.31,7.13-17.31,17.82,7.47,17.82,17.31,17.82Z"/>
        <path class="cls-1" d="M605.02,83.68c0-24.44,17.14-43.28,43.11-43.28s40.23,18.5,40.23,39.89c0,9-2.21,14.6-10.52,14.6h-44.98c3.06,7.64,10.35,10.52,20.71,10.52,4.75,0,10.18-.17,17.14-3.9,1.36-.68,2.21-.34,3.06,1.02l7.81,10.86c.68,1.02.85,2.38-.85,3.9-6.96,7.13-17.65,10.35-29.54,10.35-27.33,0-46.17-18.33-46.17-43.96ZM663.07,75.37c-1.7-8.83-7.81-11.71-14.77-11.71-7.3,0-13.75,3.23-15.96,11.71h30.72Z"/>
        <path class="cls-1" d="M697.53,84.02c0-24.44,18.5-43.62,43.96-43.62s43.79,19.18,43.79,43.62-18.5,43.62-43.79,43.62-43.96-19.18-43.96-43.62ZM741.5,101.51c9,0,16.46-6.45,16.46-17.48s-7.47-17.48-16.46-17.48-16.64,6.45-16.64,17.48,7.47,17.48,16.64,17.48Z"/>
        <g>
          <path class="cls-2" d="M339.38,253.78c-.85-1.02-.85-2.38.17-3.73l12.73-14.43c1.19-1.36,2.38-1.87,3.9-.68,8.15,7.47,14.26,10.86,22.58,10.86,7.47,0,13.07-2.38,13.07-9.17,0-5.77-4.24-7.47-10.86-10.35l-14.43-6.62c-12.56-5.77-25.12-14.77-25.12-33.95,0-22.92,17.31-35.14,38.36-35.14,14.26,0,25.97,5.43,36.33,15.96,1.02.85,1.19,2.38.17,3.73l-12.56,15.11c-.85,1.36-2.21,1.87-3.56,1.02-7.64-6.11-13.07-8.83-19.35-8.83-7.13,0-10.86,3.57-10.86,8.49,0,6.11,4.58,7.47,13.07,11.37l11.54,5.09c12.39,5.77,25.97,13.75,25.97,34.29,0,25.63-21.39,35.99-41.08,35.99s-32.93-9.51-40.06-19.01Z"/>
          <path class="cls-2" d="M435.29,238.33v-48.04c0-1.53,1.19-2.72,2.72-2.72h23.09c1.53,0,2.72,1.19,2.72,2.72v40.91c0,10.35,4.24,15.45,12.56,15.45s12.73-5.09,12.73-15.45v-40.91c0-1.53,1.19-2.72,2.72-2.72h22.92c1.53,0,2.89,1.19,2.89,2.72v77.74c0,1.53-1.36,2.72-2.89,2.72h-22.24c-1.53,0-2.55-.68-2.72-2.89l-.68-9.34c-4.75,8.49-12.22,14.26-23.93,14.26-17.14,0-29.88-12.9-29.88-34.46Z"/>
          <path class="cls-2" d="M535.1,268.04v-77.74c0-1.53,1.19-2.72,2.72-2.72h22.41c1.36,0,2.55.68,2.55,2.89l.68,8.32c4.75-7.81,12.39-13.24,23.25-13.24,10.18,0,18.33,4.92,23.09,13.92,4.92-8.15,13.24-13.92,25.46-13.92,18.16,0,29.37,12.73,29.37,34.46v48.04c0,1.53-1.19,2.72-2.72,2.72h-23.08c-1.53,0-2.72-1.19-2.72-2.72v-41.25c0-10.01-3.39-15.11-11.03-15.11s-11.03,5.09-11.03,15.11v41.25c0,1.53-1.19,2.72-2.72,2.72h-22.75c-1.87,0-3.06-1.19-3.06-2.72v-41.25c0-10.01-3.23-15.11-10.86-15.11-7.13,0-11.03,5.09-11.03,15.11v41.25c0,1.53-1.19,2.72-2.72,2.72h-23.09c-1.53,0-2.72-1.19-2.72-2.72Z"/>
          <path class="cls-2" d="M682.1,268.04v-77.74c0-1.53,1.19-2.72,2.72-2.72h22.41c1.36,0,2.55.68,2.55,2.89l.68,8.32c4.75-7.81,12.39-13.24,23.26-13.24,10.19,0,18.33,4.92,23.09,13.92,4.92-8.15,13.24-13.92,25.46-13.92,18.16,0,29.37,12.73,29.37,34.46v48.04c0,1.53-1.19,2.72-2.72,2.72h-23.08c-1.53,0-2.72-1.19-2.72-2.72v-41.25c0-10.01-3.39-15.11-11.03-15.11s-11.03,5.09-11.03,15.11v41.25c0,1.53-1.19,2.72-2.72,2.72h-22.75c-1.87,0-3.06-1.19-3.06-2.72v-41.25c0-10.01-3.23-15.11-10.86-15.11-7.13,0-11.03,5.09-11.03,15.11v41.25c0,1.53-1.19,2.72-2.72,2.72h-23.08c-1.53,0-2.72-1.19-2.72-2.72Z"/>
          <path class="cls-2" d="M824.86,229.17c0-24.44,15.79-43.62,38.7-43.62,11.71,0,19.69,4.24,24.95,11.54l.34-6.79c0-1.53,1.19-2.72,2.72-2.72h21.05c1.53,0,2.72,1.19,2.72,2.72v77.74c0,1.53-1.36,2.72-2.89,2.72h-20.88c-1.53,0-2.72-1.19-2.72-2.72l-.34-6.96c-5.6,7.3-13.58,11.71-24.95,11.71-22.92,0-38.7-19.01-38.7-43.62ZM870.01,246.99c10.01,0,16.97-7.13,16.97-17.99s-6.96-17.65-16.97-17.65-17.31,7.13-17.31,17.82,7.47,17.82,17.31,17.82Z"/>
          <path class="cls-2" d="M932.99,268.04v-77.74c0-1.53,1.19-2.72,2.72-2.72h22.41c1.36,0,2.38.68,2.55,2.89l.85,11.2c2.72-9.34,7.81-16.13,17.31-16.13,4.24,0,6.45,1.19,7.64,2.21,1.36,1.02,1.7,2.21,1.7,3.73v18.84c0,2.04-1.19,2.72-3.57,2.21-1.7-.51-3.39-.85-6.28-.85-10.01,0-16.8,5.26-16.8,18.16v38.19c0,1.53-1.19,2.72-2.72,2.72h-23.08c-1.53,0-2.72-1.19-2.72-2.72Z"/>
          <path class="cls-2" d="M1000.38,160.42c0-8.49,6.45-15.28,15.45-15.28s15.45,6.79,15.45,15.28-6.62,15.45-15.45,15.45-15.45-6.79-15.45-15.45ZM1001.39,190.29c0-1.53,1.19-2.72,2.72-2.72h23.42c1.53,0,2.72,1.19,2.72,2.72v77.74c0,1.53-1.19,2.72-2.72,2.72h-23.42c-1.53,0-2.72-1.19-2.72-2.72v-77.74Z"/>
          <path class="cls-2" d="M1044.68,268.04v-18.33c0-1.19.17-2.38,1.19-3.23l34.97-35.99h-33.1c-1.53,0-2.55-1.02-2.55-2.55v-17.65c0-1.53,1.02-2.72,2.55-2.72h62.3c1.53,0,2.55,1.19,2.55,2.72v18.33c0,1.19-.34,2.38-1.19,3.23l-35.14,35.99h33.78c1.53,0,2.72,1.02,2.72,2.55v17.65c0,1.53-1.19,2.72-2.72,2.72h-62.81c-1.53,0-2.55-1.19-2.55-2.72Z"/>
          <path class="cls-2" d="M1117.67,228.83c0-24.44,17.14-43.28,43.12-43.28s40.23,18.5,40.23,39.89c0,9-2.21,14.6-10.52,14.6h-44.98c3.05,7.64,10.35,10.52,20.71,10.52,4.75,0,10.18-.17,17.14-3.9,1.36-.68,2.21-.34,3.06,1.02l7.81,10.86c.68,1.02.85,2.38-.85,3.9-6.96,7.13-17.65,10.35-29.54,10.35-27.33,0-46.17-18.33-46.17-43.96ZM1175.72,220.51c-1.7-8.83-7.81-11.71-14.77-11.71s-13.75,3.23-15.96,11.71h30.72Z"/>
          <path class="cls-2" d="M1214.42,268.04v-77.74c0-1.53,1.19-2.72,2.72-2.72h22.41c1.36,0,2.38.68,2.55,2.89l.85,11.2c2.72-9.34,7.81-16.13,17.31-16.13,4.24,0,6.45,1.19,7.64,2.21,1.36,1.02,1.7,2.21,1.7,3.73v18.84c0,2.04-1.19,2.72-3.57,2.21-1.7-.51-3.39-.85-6.28-.85-10.01,0-16.8,5.26-16.8,18.16v38.19c0,1.53-1.19,2.72-2.72,2.72h-23.08c-1.53,0-2.72-1.19-2.72-2.72Z"/>
        </g>
      </g>
    </g>
  </g>
</svg>